<svg xmlns="http://www.w3.org/2000/svg" xmlns:xlink="http://www.w3.org/1999/xlink" xmlns:serif="http://www.serif.com/" viewBox="-4.800000000000001 -9.600000000000001 105.6 129.6" version="1.1" xml:space="preserve" style="" x="0px" y="0px" fill-rule="evenodd" clip-rule="evenodd" stroke-linejoin="round" stroke-miterlimit="2"><g><rect x="34.39" y="43.16" width="27.22" height="10.221"/><path d="M7.48,40.067l0,15.866c-3.201,-1.212 -5.48,-4.309 -5.48,-7.933c0,-3.624 2.279,-6.721 5.48,-7.933Z"/><path d="M88.52,40.067l-0,15.866c3.201,-1.212 5.48,-4.309 5.48,-7.933c0,-3.624 -2.279,-6.721 -5.48,-7.933Z"/><path d="M17.92,25.978c-1.893,0.182 -3.673,1.016 -5.029,2.372c-1.544,1.544 -2.411,3.637 -2.411,5.82c0,7.898 0,19.762 0,27.66c0,2.183 0.867,4.276 2.411,5.82c1.356,1.356 3.136,2.19 5.029,2.372l-0,-44.044Z"/><path d="M78.08,25.978c1.893,0.182 3.673,1.016 5.029,2.372c1.544,1.544 2.411,3.637 2.411,5.82c-0,7.898 -0,19.762 -0,27.66c-0,2.183 -0.867,4.276 -2.411,5.82c-1.356,1.356 -3.136,2.19 -5.029,2.372l0,-44.044Z"/><rect x="20.92" y="21.355" width="10.47" height="53.29"/><rect x="64.61" y="21.355" width="10.47" height="53.29"/></g><text x="0.0" y="112.8" font-size="4.800000000000001" font-weight="bold" font-family="Arbeit Regular, Helvetica, Arial-Unicode, Arial, Sans-serif" fill="#000000">Created by Muh zakaria</text><text x="0.0" y="117.6" font-size="4.800000000000001" font-weight="bold" font-family="Arbeit Regular, Helvetica, Arial-Unicode, Arial, Sans-serif" fill="#000000">from Noun Project</text></svg>