<svg xmlns="http://www.w3.org/2000/svg" version="1.1" viewBox="-5.0 -10.0 110.0 135.0">
 <g>
  <path d="m86.301 36.898c-1.3008-2.5-4.3984-3.5-7-2l-7.1016 3.8008-4-4.8008c-2.8984-3.5-6.6016-6.1016-10.898-7.3984l-3.5-1.1992c-4.8008-1.6016-10-1.6016-14.801 0.10156l-9 3.1016c-1.3008 0.5-2.3984 1.3984-3 2.8008l-5 11.602c-1.1992 2.6016 0 5.6016 2.6016 6.8008 2.6016 1.1992 5.6016 0 6.8008-2.6016l4.3008-9.6016 6.5-2.1992c-2.2031 6.4961-5.3047 16.797-5.2031 19.695v0.10156c0 1.1016-0.19922 2.1992-0.60156 3.1016l-3.0977 10.797c-0.39844 1.3008-1.6992 2.3008-3.1016 2.3008h-13.5c-2.8984 0-5.5 1.8984-6.1016 4.6992-1 4 2.1992 7.6016 6 7.6016h20.5c2.6016 0 5-1.6992 5.8008-4.3008l4.1992-9.6992c0.19922-0.5 0.80078-0.69922 1.1992-0.39844l7 4.8008c1.1016 0.69922 1.8984 1.8984 2.1992 3.1992l3.9023 16.797c0.80078 2.6016 3.1992 4.6016 6 4.6016 0.5 0 1 0 1.3984-0.10156 3.1992-0.80078 5.3008-4.1016 4.3984-7.3008l-5-21c-0.39844-1.3008-1.1016-2.3984-2-3.1992l-10.797-10.602c1.8008-4 3.6992-9.6016 5.5-15l5.8984 7.1992c1 1.1992 2.5 1.8984 4 1.8984 0.80078 0 1.6992-0.19922 2.3984-0.60156l10.805-5.8945c2.6992-1.3984 3.6992-4.5 2.3008-7.1016z"/>
  <path d="m72.906 9.5898c1.3828 5.8594-2.2461 11.73-8.1055 13.113-5.8555 1.3828-11.727-2.2422-13.109-8.1016-1.3867-5.8594 2.2422-11.73 8.1016-13.113 5.8594-1.3828 11.73 2.2461 13.113 8.1016"/>
 </g>
<text x="0.0" y="117.5" font-size="5.0" font-weight="bold" font-family="Arbeit Regular, Helvetica, Arial-Unicode, Arial, Sans-serif" fill="#000000">Created by Zach Hainsworth</text><text x="0.0" y="122.5" font-size="5.0" font-weight="bold" font-family="Arbeit Regular, Helvetica, Arial-Unicode, Arial, Sans-serif" fill="#000000">from Noun Project</text></svg>